<svg width="108" height="108" viewBox="0 0 108 108" fill="none" xmlns="http://www.w3.org/2000/svg">
<g clip-path="url(#clip0_1_1138)">
<path opacity="0.2" fill-rule="evenodd" clip-rule="evenodd" d="M53.7496 54.4566L36.7009 71.349C41.1325 75.768 47.2473 78.5 54.0001 78.5C60.5858 78.5 66.5645 75.9016 70.9671 71.6741L53.7496 54.4566ZM-1.35181 107.645L35.2964 71.3328C31.0786 66.7836 28.5001 60.6929 28.5001 54C28.5001 47.1382 31.2104 40.9094 35.6188 36.3258L-0.353447 0.353553L0.35366 -0.353553L36.3259 35.6187C40.9095 31.2103 47.1383 28.5 54.0001 28.5C60.7775 28.5 66.9374 31.144 71.5045 35.4569L107.648 -0.355179L108.352 0.355179L72.2182 36.1575C76.7228 40.7565 79.5001 47.0539 79.5001 54C79.5001 60.8618 76.7899 67.0906 72.3814 71.6742L108.354 107.646L107.647 108.354L71.6743 72.3813C67.0907 76.7897 60.8619 79.5 54.0001 79.5C46.9695 79.5 40.6034 76.6547 35.9905 72.0528L-0.647972 108.355L-1.35181 107.645ZM53.0425 53.7495L36.0072 70.6286C31.9682 66.2604 29.5001 60.4184 29.5001 54C29.5001 47.4144 32.0985 41.4356 36.326 37.033L53.0425 53.7495ZM53.7529 53.0457L37.0331 36.3259C41.4357 32.0984 47.4145 29.5 54.0001 29.5C60.4997 29.5 66.4082 32.031 70.7938 36.1611L53.7529 53.0457ZM54.46 53.7528L71.5078 36.8614C75.8334 41.2796 78.5001 47.3284 78.5001 54C78.5001 60.5856 75.9017 66.5644 71.6742 70.967L54.46 53.7528ZM54.0001 18.5C52.4291 18.5 50.8816 18.6021 49.3641 18.8L49.4935 19.7916C50.9682 19.5993 52.4724 19.5 54.0001 19.5C55.5278 19.5 57.032 19.5993 58.5068 19.7916L58.6361 18.8C57.1186 18.6021 55.5711 18.5 54.0001 18.5ZM40.411 21.194C37.5247 22.3909 34.8307 23.9575 32.388 25.8346L32.9973 26.6275C35.3715 24.803 37.9896 23.2807 40.7941 22.1177L40.411 21.194ZM75.6122 25.8346C73.1695 23.9575 70.4755 22.3909 67.5892 21.194L67.2062 22.1177C70.0106 23.2807 72.6287 24.803 75.0029 26.6275L75.6122 25.8346ZM25.8347 32.3879C23.9576 34.8306 22.391 37.5246 21.1941 40.4109L22.1178 40.794C23.2808 37.9895 24.8031 35.3714 26.6276 32.9972L25.8347 32.3879ZM86.8062 40.4109C85.6092 37.5246 84.0426 34.8306 82.1656 32.3879L81.3726 32.9972C83.1971 35.3714 84.7195 37.9895 85.8824 40.794L86.8062 40.4109ZM18.8001 49.364C18.6022 50.8815 18.5001 52.429 18.5001 54C18.5001 55.571 18.6022 57.1185 18.8001 58.636L19.7917 58.5067C19.5994 57.0319 19.5001 55.5277 19.5001 54C19.5001 52.4723 19.5994 50.9681 19.7917 49.4933L18.8001 49.364ZM89.5001 54C89.5001 52.429 89.398 50.8815 89.2001 49.364L88.2085 49.4933C88.4008 50.9681 88.5001 52.4723 88.5001 54C88.5001 55.5277 88.4008 57.0319 88.2085 58.5067L89.2001 58.636C89.398 57.1185 89.5001 55.571 89.5001 54ZM21.1941 67.5891C22.391 70.4754 23.9576 73.1694 25.8347 75.6121L26.6276 75.0028C24.8031 72.6286 23.2808 70.0105 22.1178 67.206L21.1941 67.5891ZM82.1656 75.6121C84.0426 73.1694 85.6092 70.4754 86.8062 67.5891L85.8824 67.206C84.7194 70.0105 83.1971 72.6286 81.3726 75.0028L82.1656 75.6121ZM32.388 82.1654C34.8307 84.0425 37.5247 85.6091 40.411 86.806L40.7941 85.8823C37.9896 84.7193 35.3715 83.197 32.9973 81.3725L32.388 82.1654ZM67.5892 86.806C70.4755 85.6091 73.1695 84.0425 75.6122 82.1654L75.0029 81.3725C72.6287 83.197 70.0106 84.7193 67.2062 85.8823L67.5892 86.806ZM49.3641 89.2C50.8816 89.3979 52.4291 89.5 54.0001 89.5C55.5711 89.5 57.1186 89.3979 58.6361 89.2L58.5068 88.2084C57.032 88.4007 55.5278 88.5 54.0001 88.5C52.4724 88.5 50.9682 88.4007 49.4935 88.2084L49.3641 89.2Z" fill="white"/>
<rect x="6.49854" y="6.49857" width="94.5014" height="94.5014" rx="26" fill="url(#paint0_linear_1_1138)"/>
<path d="M53.8008 25.8307C54.2378 25.8307 54.6639 25.8416 55.1009 25.8635C56.3355 25.9181 57.0129 27.2729 56.3902 28.3546L45.224 47.6822C44.5466 48.8513 42.8641 48.8513 42.1976 47.6822L34.8773 35.0193C34.484 34.331 34.5933 33.4569 35.1942 32.9215C40.1326 28.5075 46.6553 25.8307 53.8008 25.8307ZM25.8308 53.8007C25.8308 48.2394 27.4587 43.0606 30.2557 38.7013C30.9222 37.6633 32.43 37.7616 33.0527 38.8324L44.2079 58.171C44.8853 59.34 44.0441 60.7932 42.6893 60.7932H28.0706C27.273 60.7932 26.5738 60.2578 26.4099 59.4711C26.0275 57.6465 25.8308 55.7454 25.8308 53.8007ZM46.994 79.5855C46.6007 80.2738 45.7813 80.6125 45.0274 80.3612C38.0458 78.0559 32.277 73.0846 28.9447 66.6494C28.3765 65.5459 29.2178 64.2894 30.4524 64.2894H52.7956C54.1395 64.2894 54.9808 65.7425 54.3143 66.9116L46.994 79.5855ZM53.8008 81.7706C53.3637 81.7706 52.9376 81.7597 52.5006 81.7378C51.266 81.6832 50.5886 80.3284 51.2114 79.2468L62.3775 59.9191C63.0549 58.75 64.7375 58.75 65.4039 59.9191L72.7133 72.582C73.1066 73.2704 72.9973 74.1444 72.3964 74.6798C67.4689 79.0938 60.9462 81.7706 53.8008 81.7706ZM81.7707 53.8007C81.7707 59.3619 80.1428 64.5407 77.3458 68.9001C76.6793 69.938 75.1716 69.8397 74.5488 68.769L63.3936 49.4304C62.7162 48.2613 63.5575 46.8082 64.9123 46.8082H79.5309C80.3285 46.8082 81.0278 47.3435 81.1917 48.1302C81.5741 49.9657 81.7707 51.8559 81.7707 53.8007ZM60.6075 28.0159C61.0008 27.3275 61.8203 26.9888 62.5742 27.2401C69.5557 29.5455 75.3245 34.5167 78.6569 40.952C79.225 42.0555 78.3837 43.3119 77.1491 43.3119H54.8059C53.4621 43.3119 52.6208 41.8588 53.2873 40.6897L60.6075 28.0159Z" fill="white"/>
</g>
<defs>
<linearGradient id="paint0_linear_1_1138" x1="88.3467" y1="107.969" x2="45.1297" y2="0.492398" gradientUnits="userSpaceOnUse">
<stop offset="0.265" stop-color="#191272"/>
<stop offset="1" stop-color="#ED0342"/>
</linearGradient>
<clipPath id="clip0_1_1138">
<rect width="108" height="108" fill="white"/>
</clipPath>
</defs>
</svg>
