<?xml version="1.0" standalone="no"?>
<!DOCTYPE svg PUBLIC "-//W3C//DTD SVG 20010904//EN"
 "http://www.w3.org/TR/2001/REC-SVG-20010904/DTD/svg10.dtd">
<svg version="1.0" xmlns="http://www.w3.org/2000/svg"
 width="700.000000pt" height="700.000000pt" viewBox="0 0 700.000000 700.000000"
 preserveAspectRatio="xMidYMid meet">
<metadata>
Created by potrace 1.14, written by Peter Selinger 2001-2017
</metadata>
<g transform="translate(0.000000,700.000000) scale(0.100000,-0.100000)"
fill="#000000" stroke="none">
<path d="M3203 6584 c-70 -48 -130 -89 -133 -93 -3 -3 -32 -26 -64 -51 -134
-101 -349 -313 -461 -454 -304 -382 -501 -801 -599 -1271 -28 -137 -36 -195
-52 -365 -9 -98 -8 -416 1 -500 4 -36 9 -78 10 -95 4 -46 17 -127 40 -260 13
-79 92 -371 115 -430 4 -11 31 -81 60 -155 147 -378 367 -736 652 -1061 32
-36 58 -69 58 -72 0 -15 -274 -224 -420 -321 -324 -215 -639 -370 -1010 -497
-99 -34 -324 -100 -385 -114 -11 -2 -60 -13 -110 -24 -114 -25 -302 -58 -380
-66 -33 -4 -67 -8 -75 -10 -16 -4 -170 -18 -207 -19 -13 0 -23 -3 -23 -6 0
-11 232 -127 345 -173 195 -79 437 -153 565 -172 24 -4 47 -8 50 -10 3 -2 26
-6 50 -9 25 -4 56 -9 70 -11 193 -33 613 -33 800 0 32 6 101 17 123 20 158 22
502 126 667 202 261 119 468 244 675 406 124 98 143 114 295 267 138 138 165
167 235 255 22 28 43 52 46 55 11 10 156 217 195 280 149 237 285 520 369 770
16 47 30 87 30 90 14 54 18 60 39 54 215 -63 557 -210 781 -334 276 -153 603
-382 799 -559 144 -130 230 -214 349 -340 48 -52 87 -87 87 -80 0 37 -38 221
-84 409 -12 46 -79 243 -91 267 -8 15 -15 34 -15 41 0 26 -160 339 -229 451
-404 646 -1022 1103 -1771 1310 -90 24 -247 60 -298 66 -20 3 -48 7 -62 10
-25 5 -69 11 -137 20 -191 23 -636 24 -758 1 -11 -2 -47 -7 -80 -10 -84 -10
-120 -16 -198 -32 -86 -18 -93 -18 -101 2 -9 24 -35 203 -51 344 -22 208 -23
669 -1 810 2 14 7 54 11 90 8 81 14 128 21 158 3 13 7 43 10 65 9 69 43 234
65 321 12 44 23 90 25 100 16 82 131 429 180 541 7 17 27 64 44 105 18 41 43
96 56 123 13 26 20 47 15 47 -5 0 -67 -39 -138 -86z m519 -3686 c-11 -18 -29
-49 -40 -68 -10 -19 -42 -74 -71 -122 -28 -48 -51 -90 -51 -95 0 -4 -10 -21
-23 -37 l-23 -29 -107 186 c-59 103 -107 189 -107 192 0 3 99 5 221 5 l221 0
-20 -32z"/>
</g>
</svg>
