<?xml version="1.0" standalone="no"?>
<!DOCTYPE svg PUBLIC "-//W3C//DTD SVG 20010904//EN"
 "http://www.w3.org/TR/2001/REC-SVG-20010904/DTD/svg10.dtd">
<svg version="1.0" xmlns="http://www.w3.org/2000/svg"
 width="700.000000pt" height="700.000000pt" viewBox="0 0 700.000000 700.000000"
 preserveAspectRatio="xMidYMid meet">
<metadata>
Created by potrace 1.14, written by Peter Selinger 2001-2017
</metadata>
<g transform="translate(0.000000,700.000000) scale(0.100000,-0.100000)"
fill="#000000" stroke="none">
<path d="M3285 6454 c-609 -62 -1132 -272 -1595 -640 -109 -87 -357 -335 -444
-444 -329 -415 -536 -887 -618 -1413 -19 -122 -22 -182 -22 -427 0 -245 3
-305 22 -427 82 -524 285 -990 612 -1403 45 -58 151 -173 234 -255 446 -444
990 -717 1631 -817 120 -19 181 -22 425 -22 320 0 441 13 705 78 1050 258
1874 1081 2139 2135 65 260 80 388 80 711 0 246 -3 304 -22 427 -83 527 -289
999 -618 1413 -87 109 -334 356 -444 444 -332 265 -708 452 -1116 556 -246 63
-391 81 -679 85 -137 2 -268 1 -290 -1z m300 -111 c192 -393 285 -834 285
-1355 0 -403 -50 -722 -166 -1060 -45 -130 -160 -388 -174 -388 -4 0 -32 51
-62 113 -340 691 -377 1696 -92 2466 43 114 141 321 152 321 5 0 30 -44 57
-97z m-111 -2925 c-389 -775 -1284 -1462 -2128 -1633 -70 -14 -132 -25 -137
-23 -15 5 109 238 197 370 437 658 1209 1201 1937 1362 126 28 171 34 175 24
2 -3 -18 -48 -44 -100z m201 85 c209 -40 468 -133 705 -254 519 -265 976 -667
1280 -1126 74 -112 206 -363 191 -363 -5 0 -66 11 -135 25 -626 127 -1319 558
-1778 1105 -94 112 -173 221 -250 346 -57 92 -130 231 -142 270 -7 24 -12 24
129 -3z"/>
</g>
</svg>
