<?xml version="1.0" standalone="no"?>
<!DOCTYPE svg PUBLIC "-//W3C//DTD SVG 20010904//EN"
 "http://www.w3.org/TR/2001/REC-SVG-20010904/DTD/svg10.dtd">
<svg version="1.0" xmlns="http://www.w3.org/2000/svg"
 width="700.000000pt" height="700.000000pt" viewBox="0 0 700.000000 700.000000"
 preserveAspectRatio="xMidYMid meet">
<metadata>
Created by potrace 1.14, written by Peter Selinger 2001-2017
</metadata>
<g transform="translate(0.000000,700.000000) scale(0.100000,-0.100000)"
fill="#000000" stroke="none">
<path d="M3310 6923 c-852 -59 -1589 -384 -2184 -963 -402 -391 -687 -843
-861 -1365 -90 -269 -142 -523 -166 -803 -15 -178 -6 -561 16 -722 53 -386
155 -719 325 -1065 181 -369 391 -658 691 -950 553 -537 1233 -855 2024 -946
142 -17 557 -17 705 0 774 86 1473 414 2019 945 569 556 911 1235 1018 2026
25 189 25 690 0 865 -102 696 -359 1274 -797 1790 -99 116 -338 347 -465 448
-538 430 -1192 685 -1890 737 -129 9 -327 11 -435 3z m255 -123 c171 -341 277
-733 326 -1205 16 -155 16 -605 0 -760 -49 -473 -155 -863 -327 -1206 -58
-117 -59 -128 -7 -129 13 0 76 -11 140 -25 739 -157 1533 -658 2069 -1303 165
-199 333 -458 419 -647 l36 -78 -53 7 c-106 14 -286 59 -443 111 -886 291
-1743 1008 -2141 1790 -40 80 -76 145 -79 145 -3 0 -32 -53 -64 -118 -154
-312 -375 -607 -672 -897 -534 -520 -1184 -882 -1815 -1010 -179 -37 -170 -41
-125 57 81 175 233 415 378 595 480 598 1193 1085 1888 1293 109 32 321 80
357 80 51 0 52 13 10 91 -88 162 -184 418 -241 644 -196 783 -148 1657 130
2358 40 99 145 317 154 317 3 0 30 -49 60 -110z"/>
</g>
</svg>
