<?xml version="1.0" standalone="no"?>
<!DOCTYPE svg PUBLIC "-//W3C//DTD SVG 20010904//EN"
 "http://www.w3.org/TR/2001/REC-SVG-20010904/DTD/svg10.dtd">
<svg version="1.0" xmlns="http://www.w3.org/2000/svg"
 width="700.000000pt" height="700.000000pt" viewBox="0 0 700.000000 700.000000"
 preserveAspectRatio="xMidYMid meet">
<metadata>
Created by potrace 1.14, written by Peter Selinger 2001-2017
</metadata>
<g transform="translate(0.000000,700.000000) scale(0.100000,-0.100000)"
fill="#000000" stroke="none">
<path d="M3278 6996 c-1 -2 -39 -6 -83 -10 -467 -36 -976 -192 -1405 -432 -78
-43 -320 -198 -358 -229 -10 -8 -53 -42 -97 -76 -426 -331 -813 -825 -1020
-1299 -25 -58 -50 -114 -55 -125 -45 -93 -150 -427 -176 -560 -2 -11 -10 -54
-19 -95 -29 -147 -36 -199 -52 -370 -15 -164 -8 -592 12 -711 2 -13 6 -46 9
-74 9 -78 22 -152 51 -285 21 -96 91 -339 114 -395 5 -11 25 -65 46 -120 63
-166 249 -531 312 -610 4 -6 34 -49 65 -95 171 -256 432 -534 708 -755 92 -74
370 -265 386 -265 4 0 15 -6 23 -14 26 -22 298 -158 408 -204 282 -116 583
-199 862 -238 25 -3 57 -8 71 -10 163 -25 682 -25 842 1 13 2 46 7 73 10 71
10 87 13 115 18 14 3 43 8 65 12 115 21 314 74 455 122 557 188 1090 542 1480
982 36 41 70 79 76 85 65 68 263 353 352 508 46 79 172 331 172 342 0 3 11 29
24 58 57 127 151 421 182 573 17 81 54 301 59 350 4 33 9 71 11 85 9 46 11
524 4 605 -15 153 -21 210 -25 225 -2 8 -7 35 -10 60 -17 129 -80 384 -136
552 -349 1038 -1173 1863 -2209 2207 -174 58 -415 118 -550 136 -19 3 -46 7
-60 10 -13 2 -54 7 -90 11 -36 3 -76 8 -90 11 -27 5 -536 14 -542 9z m472
-310 c319 -26 721 -121 957 -227 23 -11 45 -19 48 -19 13 0 244 -116 335 -168
142 -82 419 -275 460 -322 3 -3 21 -18 40 -34 53 -42 248 -235 305 -301 392
-454 631 -943 744 -1520 11 -55 23 -127 26 -160 4 -33 9 -69 11 -80 22 -111
21 -653 -1 -717 -2 -7 -6 -33 -9 -58 -22 -227 -133 -630 -233 -850 -182 -400
-372 -679 -661 -974 -275 -279 -626 -524 -962 -670 -36 -16 -78 -34 -95 -42
-180 -80 -557 -182 -770 -209 -27 -3 -66 -8 -85 -10 -178 -23 -598 -24 -718 0
-11 2 -47 6 -79 10 -32 3 -67 8 -78 10 -11 3 -31 7 -45 9 -14 3 -50 10 -80 16
-30 6 -66 13 -80 16 -180 34 -489 147 -721 264 -115 57 -342 190 -359 209 -3
3 -27 22 -55 40 -191 132 -428 351 -590 546 -28 33 -52 62 -55 65 -13 12 -121
161 -167 230 -139 210 -264 464 -363 740 -14 38 -61 197 -65 221 -2 11 -6 28
-9 37 -3 9 -7 28 -10 42 -2 14 -14 70 -25 125 -11 55 -23 127 -26 160 -4 33
-9 69 -11 80 -23 115 -22 533 2 725 10 84 27 190 41 255 8 39 17 81 19 95 17
89 113 393 149 475 8 17 23 53 35 80 247 567 645 1040 1172 1393 59 40 110 72
114 72 3 0 18 8 32 19 50 34 236 127 367 183 194 83 401 147 605 188 25 5 54
11 65 14 22 4 82 14 135 21 74 10 118 15 210 21 52 3 96 7 97 8 5 4 312 -3
383 -8z"/>
<path d="M3442 5903 c-10 -10 -40 -38 -68 -62 -47 -43 -207 -190 -323 -297
-81 -75 -107 -99 -216 -199 -54 -49 -115 -105 -134 -123 -40 -37 -77 -72 -235
-217 -60 -55 -121 -111 -136 -125 -15 -14 -68 -63 -119 -110 -51 -47 -105 -96
-120 -110 -15 -14 -54 -50 -87 -79 -32 -30 -88 -82 -124 -115 -58 -55 -238
-220 -315 -290 -16 -15 -77 -72 -135 -125 -58 -54 -130 -120 -161 -147 -102
-90 -103 -92 -103 -280 0 -150 2 -166 20 -191 36 -48 56 -53 239 -53 183 0
203 -5 239 -53 21 -28 21 -30 22 -955 0 -864 1 -929 18 -953 36 -56 28 -56
639 -55 525 1 565 2 590 19 16 10 33 30 39 45 8 19 11 221 12 657 1 606 2 631
21 662 11 20 33 37 52 44 22 7 177 11 459 10 464 0 452 1 491 -57 16 -24 17
-80 17 -663 1 -599 2 -639 19 -665 35 -52 33 -52 641 -52 557 1 565 1 593 22
15 11 33 31 40 44 9 18 11 247 8 942 -2 645 0 925 8 941 6 13 22 32 36 42 23
18 48 21 217 25 206 5 212 7 241 63 16 32 23 268 10 338 -8 38 -27 58 -252
264 -66 61 -134 124 -151 140 -17 17 -67 62 -110 102 -44 39 -97 89 -120 110
-22 21 -87 81 -144 133 -56 52 -115 106 -130 120 -15 14 -78 72 -140 130 -62
58 -121 112 -130 120 -9 8 -63 58 -120 110 -56 52 -115 106 -130 120 -15 14
-76 70 -136 126 -60 55 -140 129 -179 164 -38 35 -86 80 -106 99 -20 20 -56
54 -80 76 -53 47 -272 248 -279 255 -52 52 -84 70 -125 70 -29 0 -51 -6 -63
-17z"/>
</g>
</svg>
