<?xml version="1.0" standalone="no"?>
<!DOCTYPE svg PUBLIC "-//W3C//DTD SVG 20010904//EN"
 "http://www.w3.org/TR/2001/REC-SVG-20010904/DTD/svg10.dtd">
<svg version="1.0" xmlns="http://www.w3.org/2000/svg"
 width="700.000000pt" height="700.000000pt" viewBox="0 0 700.000000 700.000000"
 preserveAspectRatio="xMidYMid meet">
<metadata>
Created by potrace 1.14, written by Peter Selinger 2001-2017
</metadata>
<g transform="translate(0.000000,700.000000) scale(0.100000,-0.100000)"
fill="#000000" stroke="none">
<path d="M3278 6995 c-1 -1 -42 -5 -89 -9 -47 -4 -95 -8 -105 -10 -10 -2 -45
-7 -78 -11 -101 -12 -214 -35 -381 -76 -274 -69 -574 -189 -835 -335 -78 -43
-320 -198 -358 -229 -10 -8 -53 -42 -97 -76 -472 -368 -860 -885 -1085 -1450
-66 -165 -142 -408 -165 -530 -3 -13 -12 -58 -20 -99 -8 -41 -17 -89 -19 -105
-3 -17 -7 -46 -11 -66 -21 -123 -30 -282 -30 -504 0 -194 7 -329 20 -406 2
-13 6 -46 9 -74 47 -408 239 -953 466 -1318 30 -48 60 -95 65 -105 24 -42 133
-191 208 -285 163 -202 344 -382 557 -552 92 -74 370 -265 386 -265 4 0 15 -6
23 -14 48 -40 387 -201 551 -261 238 -86 490 -149 719 -181 25 -3 57 -8 71
-10 163 -25 682 -25 842 1 13 2 46 7 73 10 71 10 87 13 115 18 14 3 43 8 65
12 325 59 741 212 1039 384 49 28 91 51 93 51 10 0 268 180 353 247 152 119
324 280 450 422 36 41 70 79 76 85 29 30 185 242 240 326 120 184 241 412 315
597 66 163 147 422 175 558 16 75 54 300 60 350 4 33 9 76 11 95 8 71 10 517
3 595 -17 172 -22 220 -25 225 -2 3 -6 30 -10 60 -3 30 -10 71 -15 90 -5 19
-12 51 -15 70 -12 71 -66 270 -101 376 -104 312 -227 563 -410 839 -431 651
-1058 1132 -1799 1383 -108 37 -335 97 -440 118 -22 4 -42 8 -45 9 -3 0 -30 5
-60 9 -30 4 -64 10 -75 12 -11 2 -49 6 -85 10 -36 3 -78 8 -95 11 -33 5 -531
13 -537 8z m469 -309 c95 -7 136 -12 258 -32 130 -20 137 -22 285 -59 361 -91
693 -240 1005 -453 93 -63 237 -172 255 -192 3 -3 21 -18 40 -34 53 -42 248
-235 305 -301 387 -449 625 -930 739 -1495 13 -69 28 -152 32 -185 3 -33 8
-69 10 -80 16 -83 22 -399 11 -580 -20 -323 -129 -769 -254 -1045 -86 -189
-158 -323 -250 -465 -469 -720 -1211 -1228 -2038 -1393 -82 -17 -172 -33 -200
-37 -27 -3 -66 -8 -85 -10 -178 -23 -598 -24 -718 0 -11 2 -47 6 -78 10 -32 3
-103 15 -158 26 -56 11 -112 23 -126 25 -162 31 -451 134 -674 239 -116 55
-377 206 -406 235 -3 3 -27 21 -55 39 -193 134 -428 351 -590 546 -28 33 -52
62 -55 65 -3 3 -31 39 -61 80 -174 235 -308 476 -412 740 -43 110 -112 319
-122 368 -2 13 -6 31 -9 40 -3 9 -7 28 -10 42 -2 14 -14 70 -25 125 -11 55
-23 127 -26 160 -4 33 -9 69 -11 80 -23 115 -22 533 2 725 10 84 27 190 41
255 8 39 17 81 19 95 18 94 112 390 154 485 9 22 28 65 41 95 207 475 549 905
989 1246 71 55 276 194 286 194 3 0 18 8 32 19 102 70 424 215 624 280 165 53
398 107 548 126 25 3 61 8 80 10 19 2 78 7 130 11 52 3 96 7 97 8 5 4 300 -2
380 -8z"/>
<path d="M3367 5564 c-1 -1 -36 -4 -77 -8 -376 -32 -799 -209 -1102 -460 -143
-119 -146 -106 90 -514 105 -180 200 -345 212 -367 12 -22 56 -98 98 -169 66
-112 81 -131 115 -146 43 -19 88 -17 124 6 22 14 66 86 270 439 222 383 567
981 590 1022 43 77 22 159 -46 187 -24 9 -74 13 -154 13 -65 -1 -119 -2 -120
-3z"/>
<path d="M4064 5456 c-38 -17 -36 -13 -349 -556 -141 -245 -259 -459 -262
-477 -10 -61 23 -121 78 -141 13 -5 406 -8 884 -8 826 1 861 2 888 20 63 43
69 100 21 191 -189 356 -525 681 -903 870 -84 42 -277 115 -303 115 -13 -1
-37 -7 -54 -14z"/>
<path d="M1814 4660 c-37 -15 -82 -81 -157 -230 -68 -135 -146 -342 -166 -442
-5 -24 -16 -78 -24 -120 -54 -265 -35 -746 32 -838 38 -53 30 -52 641 -52 623
0 605 -2 647 61 45 67 49 60 -289 645 -537 933 -540 938 -577 963 -35 24 -70
28 -107 13z"/>
<path d="M4278 4003 c-51 -22 -78 -61 -80 -118 -1 -32 59 -146 231 -436 11
-19 26 -45 34 -59 7 -14 72 -126 144 -250 71 -124 141 -245 155 -270 116 -205
284 -489 300 -507 39 -42 103 -50 150 -19 42 28 151 222 216 386 136 343 180
736 122 1080 -5 30 -11 70 -14 88 -6 41 -28 76 -63 99 -24 16 -73 17 -596 18
-426 0 -577 -3 -599 -12z"/>
<path d="M4214 3102 c-50 -17 -78 -58 -255 -371 -24 -43 -126 -218 -449 -776
-73 -126 -151 -261 -172 -298 -58 -102 -53 -167 18 -213 43 -29 325 -22 507
12 359 67 658 203 938 427 141 114 149 144 68 284 -28 48 -61 106 -73 128 -13
22 -79 137 -148 255 -69 118 -136 235 -150 260 -110 196 -148 256 -175 275
-24 17 -82 26 -109 17z"/>
<path d="M1734 2713 c-12 -2 -34 -18 -50 -34 -46 -48 -41 -103 20 -209 229
-399 601 -724 1022 -892 207 -83 226 -77 321 89 26 47 58 102 70 122 12 20 28
47 36 61 12 23 126 221 262 455 124 213 138 240 142 274 6 47 -23 99 -68 123
-32 17 -78 18 -884 17 -467 -1 -860 -4 -871 -6z"/>
</g>
</svg>
